<svg width="74" height="74" viewBox="0 0 74 74" fill="none" xmlns="http://www.w3.org/2000/svg">
<path d="M45.8744 63.7569C45.9625 64.3899 45.5217 64.9739 44.8901 65.062C42.5314 65.3915 40.3793 65.5578 38.3876 65.5578C35.5808 65.5578 33.0906 65.2282 30.7867 64.5648C25.825 63.1354 21.794 60.0555 18.8051 55.4102C18.4597 54.8726 18.6143 54.1571 19.152 53.8117C19.6896 53.4663 20.4051 53.6209 20.7505 54.1586C27 63.8725 36.7631 63.8639 44.5692 62.7712C45.2008 62.683 45.7848 63.1239 45.8744 63.7569ZM69.6483 71.7697C66.921 70.6771 64.266 69.2158 63.3034 65.9451C63.2138 65.6416 63.0042 65.3887 62.7238 65.2441C62.4434 65.0996 62.1153 65.0765 61.8162 65.1791C31.8794 75.542 20.5727 66.4076 13.0903 60.3633C10.4917 58.2647 8.37428 56.5535 6.05022 56.1676C5.67155 53.5732 6.26412 50.4326 7.44639 45.8018L16.3134 11.0203L35.8078 2.57248L42.5082 11.1157L35.1631 19.4624L31.0787 16.4417C30.7925 16.2292 30.424 16.1613 30.0814 16.2581L21.0063 18.7846C20.3906 18.9565 20.0307 19.5939 20.2027 20.2082C20.3747 20.8239 21.0106 21.1838 21.6264 21.0118L25.9319 19.8136L27.3874 41.158C26.6633 41.8315 25.997 42.573 25.3972 43.3737C25.0142 43.8853 25.1197 44.6094 25.6313 44.9924C26.143 45.3754 26.8671 45.2699 27.2501 44.7583C29.9889 41.0944 34.3639 38.9062 38.9542 38.9062C42.4822 38.9062 45.766 40.139 48.3343 42.2781C48.3878 42.3388 48.447 42.3966 48.5149 42.4472C48.5381 42.4646 48.5612 42.4761 48.5858 42.492C50.3187 44.0038 51.7076 45.9376 52.5922 48.1923C52.7714 48.6476 53.2064 48.9265 53.6689 48.9265C53.8091 48.9265 53.9522 48.9005 54.091 48.8456C54.685 48.6115 54.9784 47.9408 54.7442 47.3468C53.8568 45.0878 52.5083 43.0701 50.787 41.3979C53.9883 37.6401 58.7463 35.4244 63.7167 35.4244C65.4959 35.4244 67.2303 35.6875 68.8707 36.2063C69.4792 36.3986 70.1296 36.0618 70.3218 35.4533C70.514 34.8449 70.1773 34.1945 69.5688 34.0022C67.7015 33.4111 65.733 33.1119 63.7167 33.1119C58.0685 33.1119 52.6615 35.6311 49.0237 39.902C48.8893 39.8023 48.7534 39.704 48.6161 39.6086C45.7732 37.6372 42.4316 36.5951 38.9528 36.5951C35.5939 36.5951 32.3332 37.6083 29.5871 39.4265L28.2054 19.1806L30.1566 18.6371L34.6414 21.9541C35.1241 22.3111 35.8005 22.2389 36.1965 21.7879L44.8785 11.9222C45.2471 11.5045 45.2644 10.883 44.9205 10.4451L37.0767 0.443538C36.753 0.0301791 36.1893 -0.112907 35.7066 0.0966635L14.8739 9.12409C14.5458 9.26573 14.3015 9.55334 14.2133 9.89877L5.2076 45.2309C3.80709 50.7101 3.19284 54.2901 3.95451 57.5088C4.07737 58.0291 4.54276 58.3977 5.07752 58.3991C6.98389 58.4035 9.03768 60.0627 11.6378 62.1627C15.3306 65.1458 20.3877 69.2317 28.3528 71.1135C37.4597 73.2656 48.3097 72.16 61.4953 67.7315C62.9926 71.1974 66.1348 72.8523 68.7898 73.916C68.9314 73.9724 69.076 73.9998 69.219 73.9998C69.6772 73.9998 70.1123 73.7252 70.2929 73.2728C70.5299 72.6803 70.2423 72.0067 69.6483 71.7697Z" fill="#FFDD00"/>
</svg>
