<svg width="45" height="39" viewBox="0 0 45 39" fill="none" xmlns="http://www.w3.org/2000/svg">
<path d="M7.04045 38.2719C4.48045 38.2719 2.64579 37.7173 1.53645 36.6079C0.512453 35.4133 0.17112 33.4079 0.512453 30.5919L1.53645 23.1679C1.87779 20.5226 2.47512 17.7919 3.32845 14.9759C4.26712 12.1599 5.37645 9.47194 6.65645 6.91194C7.93645 4.26661 9.34445 1.96261 10.8805 -5.34058e-05L19.4565 3.32794C18.4325 5.88794 17.5365 8.44794 16.7685 11.0079C16.0858 13.5679 15.4031 16.2133 14.7205 18.9439C16.9391 18.8586 18.4325 19.3706 19.2005 20.4799C19.9685 21.5893 20.1818 23.2106 19.8405 25.3439L19.0725 31.1039C18.6458 33.9199 17.7925 35.8399 16.5125 36.8639C15.3178 37.8026 13.4405 38.2719 10.8805 38.2719H7.04045ZM31.1045 38.2719C28.5445 38.2719 26.7098 37.7173 25.6005 36.6079C24.5765 35.4133 24.2351 33.4079 24.5765 30.5919L25.6005 23.1679C25.9418 20.5226 26.5818 17.7919 27.5205 14.9759C28.4591 12.1599 29.5685 9.47194 30.8485 6.91194C32.1285 4.26661 33.4938 1.96261 34.9445 -5.34058e-05L43.5205 3.32794C42.4965 5.88794 41.6005 8.44794 40.8325 11.0079C40.1498 13.5679 39.4671 16.2133 38.7845 18.9439C41.0031 18.8586 42.4965 19.3706 43.2645 20.4799C44.0325 21.5893 44.2885 23.2106 44.0325 25.3439L43.1365 31.1039C42.7951 33.9199 41.9845 35.8399 40.7045 36.8639C39.4245 37.8026 37.5045 38.2719 34.9445 38.2719H31.1045Z" fill="#FFDD00"/>
</svg>
