<svg width="27" height="27" viewBox="0 0 27 27" fill="none" xmlns="http://www.w3.org/2000/svg">
<g clip-path="url(#clip0_146_557)">
<path d="M25.6154 4.49998H1.38465C0.623057 4.49998 0 5.12304 0 5.88458V21.1154C0 21.8769 0.623057 22.5 1.38465 22.5H25.6154C26.3769 22.5 27.0001 21.877 27.0001 21.1154V5.88458C27 5.12304 26.3769 4.49998 25.6154 4.49998ZM25.0958 5.53838L14.2965 13.6385C14.1023 13.7862 13.8043 13.8787 13.4999 13.8773C13.1957 13.8787 12.8977 13.7862 12.7034 13.6385L1.90419 5.53838H25.0958ZM19.3271 14.1729L25.2118 21.4422C25.2177 21.4495 25.2249 21.455 25.2312 21.4616H1.76882C1.77504 21.4547 1.78232 21.4495 1.78822 21.4422L7.67285 14.1729C7.85315 13.95 7.81898 13.6232 7.59565 13.4425C7.37274 13.2622 7.04595 13.2964 6.86559 13.5194L1.03845 20.7177V6.18743L12.0807 14.4692C12.4958 14.7783 13.0008 14.9143 13.4999 14.9157C13.9983 14.9147 14.5037 14.7786 14.9191 14.4692L25.9613 6.18743V20.7175L20.1344 13.5194C19.954 13.2964 19.6269 13.2622 19.4043 13.4425C19.181 13.6228 19.1467 13.95 19.3271 14.1729Z" fill="#FFDD00"/>
</g>
<defs>
<clipPath id="clip0_146_557">
<rect width="27" height="27" fill="white"/>
</clipPath>
</defs>
</svg>
