<svg width="27" height="27" viewBox="0 0 27 27" fill="none" xmlns="http://www.w3.org/2000/svg">
<g clip-path="url(#clip0_146_539)">
<path d="M21.3384 16.7261C20.7857 16.1505 20.1189 15.8428 19.4123 15.8428C18.7114 15.8428 18.039 16.1448 17.4634 16.7204L15.6627 18.5154C15.5145 18.4356 15.3663 18.3615 15.2239 18.2875C15.0187 18.1849 14.825 18.088 14.6597 17.9854C12.973 16.9141 11.4401 15.518 9.96983 13.7115C9.25751 12.8112 8.77884 12.0533 8.43122 11.284C8.8985 10.8566 9.33159 10.4121 9.75329 9.98469C9.91284 9.82513 10.0724 9.65987 10.232 9.50031C11.4287 8.30362 11.4287 6.75362 10.232 5.55693L8.67626 4.00123C8.49961 3.82457 8.31725 3.64222 8.1463 3.45987C7.80439 3.10656 7.44538 2.74185 7.07497 2.39994C6.52222 1.85288 5.86119 1.56226 5.16596 1.56226C4.47074 1.56226 3.79832 1.85288 3.22846 2.39994C3.22276 2.40564 3.22276 2.40564 3.21706 2.41134L1.27956 4.36593C0.55015 5.09535 0.134156 5.98432 0.0429799 7.01575C-0.093785 8.67973 0.396289 10.2297 0.772392 11.2441C1.69556 13.7343 3.0746 16.0422 5.13177 18.5154C7.62773 21.4957 10.6309 23.8492 14.0614 25.5075C15.372 26.1286 17.1215 26.8637 19.0761 26.9891C19.1958 26.9948 19.3211 27.0005 19.4351 27.0005C20.7515 27.0005 21.857 26.5275 22.7232 25.5873C22.7289 25.5759 22.7402 25.5702 22.7459 25.5588C23.0423 25.1998 23.3842 24.875 23.7432 24.5273C23.9882 24.2937 24.239 24.0487 24.484 23.7922C25.0482 23.2053 25.3445 22.5215 25.3445 21.8205C25.3445 21.1139 25.0425 20.4358 24.4669 19.8659L21.3384 16.7261ZM23.3785 22.7266C23.3728 22.7266 23.3728 22.7323 23.3785 22.7266C23.1562 22.966 22.9283 23.1825 22.6833 23.4218C22.3129 23.7751 21.9368 24.1455 21.5834 24.5615C21.0079 25.177 20.3298 25.4676 19.4408 25.4676C19.3553 25.4676 19.2641 25.4676 19.1787 25.4619C17.4862 25.3536 15.9134 24.6926 14.7338 24.1285C11.5084 22.5671 8.67626 20.3503 6.32277 17.5409C4.37957 15.1988 3.0803 13.0334 2.21982 10.7084C1.68986 9.28947 1.49611 8.18395 1.58158 7.14112C1.63857 6.47439 1.895 5.92163 2.36798 5.44866L4.31118 3.50546C4.59041 3.24332 4.88674 3.10086 5.17736 3.10086C5.53637 3.10086 5.82699 3.3174 6.00935 3.49976C6.01505 3.50546 6.02074 3.51115 6.02644 3.51685C6.37405 3.84167 6.70457 4.17788 7.05218 4.53689C7.22883 4.71924 7.41119 4.9016 7.59354 5.08965L9.14924 6.64535C9.75329 7.24939 9.75329 7.80785 9.14924 8.41189C8.98398 8.57715 8.82442 8.74241 8.65917 8.90197C8.18049 9.39204 7.72461 9.84792 7.22883 10.2924C7.21744 10.3038 7.20604 10.3095 7.20034 10.3209C6.71027 10.811 6.80144 11.2897 6.90402 11.6145C6.90972 11.6316 6.91541 11.6487 6.92111 11.6658C7.32571 12.6459 7.89556 13.5691 8.76174 14.6689L8.76744 14.6746C10.3402 16.6121 11.9985 18.1222 13.8277 19.279C14.0614 19.4272 14.3007 19.5468 14.5287 19.6608C14.7338 19.7634 14.9276 19.8602 15.0928 19.9628C15.1156 19.9742 15.1384 19.9913 15.1612 20.0027C15.3549 20.0996 15.5373 20.1452 15.7254 20.1452C16.1983 20.1452 16.4947 19.8489 16.5915 19.752L18.5404 17.8031C18.7342 17.6093 19.0419 17.3757 19.4009 17.3757C19.7542 17.3757 20.0448 17.5979 20.2215 17.7917C20.2272 17.7974 20.2272 17.7974 20.2329 17.8031L23.3728 20.943C23.9597 21.5242 23.9597 22.1226 23.3785 22.7266Z" fill="#FFDD00"/>
<path d="M14.5903 6.42259C16.0833 6.67333 17.4395 7.37995 18.5222 8.46267C19.605 9.54539 20.3059 10.9016 20.5623 12.3947C20.625 12.7708 20.9498 13.0329 21.3202 13.0329C21.3658 13.0329 21.4057 13.0272 21.4513 13.0215C21.873 12.9531 22.1522 12.5542 22.0838 12.1325C21.7761 10.3261 20.9213 8.67921 19.6164 7.37425C18.3114 6.06929 16.6645 5.2145 14.8581 4.90678C14.4364 4.8384 14.0432 5.11763 13.9691 5.53362C13.895 5.94962 14.1686 6.35421 14.5903 6.42259Z" fill="#FFDD00"/>
<path d="M26.9679 11.9103C26.4607 8.93563 25.0589 6.22883 22.9048 4.07478C20.7508 1.92074 18.044 0.518898 15.0693 0.0117284C14.6534 -0.0623525 14.2602 0.222574 14.1861 0.638567C14.1177 1.06026 14.3969 1.45346 14.8186 1.52754C17.4741 1.97772 19.896 3.2371 21.8221 5.15751C23.7482 7.08361 25.0019 9.50549 25.4521 12.161C25.5148 12.5371 25.8396 12.7992 26.21 12.7992C26.2556 12.7992 26.2955 12.7935 26.341 12.7878C26.757 12.7252 27.042 12.3263 26.9679 11.9103Z" fill="#FFDD00"/>
</g>
<defs>
<clipPath id="clip0_146_539">
<rect width="27" height="27" fill="white"/>
</clipPath>
</defs>
</svg>
