<svg width="27" height="27" viewBox="0 0 27 27" fill="none" xmlns="http://www.w3.org/2000/svg">
<path d="M13.5 0C7.91606 0 3.375 4.54106 3.375 10.125C3.375 17.1433 12.5145 26.3638 12.9026 26.7536C13.068 26.9173 13.284 27 13.5 27C13.716 27 13.932 26.9173 14.0974 26.7536C14.4855 26.3638 23.625 17.1433 23.625 10.125C23.625 4.54106 19.0839 0 13.5 0ZM13.5 24.9362C11.4851 22.7796 5.0625 15.4862 5.0625 10.125C5.0625 5.47256 8.84756 1.6875 13.5 1.6875C18.1524 1.6875 21.9375 5.47256 21.9375 10.125C21.9375 15.4811 15.5149 22.7796 13.5 24.9362Z" fill="#FFDD00"/>
<path d="M13.5 5.0625C10.7089 5.0625 8.4375 7.33387 8.4375 10.125C8.4375 12.9161 10.7089 15.1875 13.5 15.1875C16.2911 15.1875 18.5625 12.9161 18.5625 10.125C18.5625 7.33387 16.2911 5.0625 13.5 5.0625ZM13.5 13.5C11.6387 13.5 10.125 11.9863 10.125 10.125C10.125 8.26369 11.6387 6.75 13.5 6.75C15.3613 6.75 16.875 8.26369 16.875 10.125C16.875 11.9863 15.3613 13.5 13.5 13.5Z" fill="#FFDD00"/>
</svg>
