<svg width="20" height="20" viewBox="0 0 20 20" fill="none" xmlns="http://www.w3.org/2000/svg">
<g clip-path="url(#clip0_57_661)">
<path d="M10 20C15.5228 20 20 15.5228 20 10C20 4.47715 15.5228 0 10 0C4.47715 0 0 4.47715 0 10C0 15.5228 4.47715 20 10 20Z" fill="#039BE5"/>
<path d="M4.57556 9.78351L14.2172 6.06601C14.6647 5.90434 15.0556 6.17517 14.9106 6.85184L14.9114 6.85101L13.2697 14.5852C13.1481 15.1335 12.8222 15.2668 12.3664 15.0085L9.8664 13.166L8.66056 14.3277C8.52723 14.461 8.41473 14.5735 8.1564 14.5735L8.3339 12.0293L12.9672 7.84351C13.1689 7.66601 12.9222 7.56601 12.6564 7.74267L6.93056 11.3477L4.46223 10.5777C3.9264 10.4077 3.91473 10.0418 4.57556 9.78351Z" fill="white"/>
</g>
<defs>
<clipPath id="clip0_57_661">
<rect width="20" height="20" fill="white"/>
</clipPath>
</defs>
</svg>
