<svg width="74" height="74" viewBox="0 0 74 74" fill="none" xmlns="http://www.w3.org/2000/svg">
<path d="M70.917 40.0829C71.842 40.0829 72.4592 39.4657 72.4592 38.5407V29.2907C72.4592 26.6696 70.4552 24.6657 67.8342 24.6657H65.8288C66.292 22.5079 67.6787 20.6579 69.8366 20.0407C70.2347 19.9159 70.5672 19.6387 70.7616 19.2696C70.9096 18.9618 70.9096 18.4985 70.7616 18.0368L67.6787 9.25002C67.217 8.01718 66.4459 7.09218 65.367 6.62894C64.2881 6.1657 63.0552 6.01178 61.815 6.48094L9.24983 24.6672H6.16699C3.54591 24.6672 1.54199 26.6711 1.54199 29.2922V38.5422C1.54199 39.4672 2.15915 40.0843 3.08415 40.0843C3.90198 40.0717 4.71415 40.2218 5.4734 40.526C6.23265 40.8302 6.9238 41.2824 7.50662 41.8563C8.08944 42.4301 8.55229 43.1142 8.86822 43.8687C9.18415 44.6231 9.34685 45.4328 9.34685 46.2508C9.34685 47.0687 9.18415 47.8784 8.86822 48.6329C8.55229 49.3873 8.08944 50.0714 7.50662 50.6453C6.9238 51.2191 6.23265 51.6713 5.4734 51.9755C4.71415 52.2797 3.90198 52.4299 3.08415 52.4172C2.15915 52.4172 1.54199 53.0344 1.54199 53.9594V63.2094C1.54199 65.8304 3.54591 67.8344 6.16699 67.8344H67.8327C70.4538 67.8344 72.4577 65.8304 72.4577 63.2094V53.9594C72.4577 53.0344 71.8405 52.4172 70.9155 52.4172C69.2966 52.3921 67.7525 51.7314 66.6166 50.5777C65.4806 49.424 64.8439 47.8699 64.8439 46.2508C64.8439 44.6317 65.4806 43.0775 66.6166 41.9238C67.7525 40.7701 69.2966 40.1094 70.9155 40.0843L70.917 40.0829ZM62.8998 9.40394C63.2963 9.24988 63.7362 9.24988 64.1327 9.40394C64.5018 9.59833 64.779 9.93087 64.9038 10.3289L67.5248 17.7289C64.9038 19.1172 63.2077 21.7368 62.7459 24.6672H18.6478L62.8998 9.40394ZM4.62483 63.2079V55.352C8.94199 54.581 12.3327 50.881 12.3327 46.256C12.3327 41.631 8.94199 37.925 4.62483 37.148V29.2922C4.62483 28.3672 5.24199 27.75 6.16699 27.75H53.9577V64.75H6.16699C5.24199 64.75 4.62483 64.1329 4.62483 63.2079ZM69.3748 55.352V63.2153C69.3748 64.1403 68.7577 64.7574 67.8327 64.7574H57.042V27.7574H67.8342C68.7591 27.7574 69.3763 28.3746 69.3763 29.2996V37.148C65.0592 37.9191 61.6685 41.6191 61.6685 46.2441C61.6685 50.8691 65.0577 54.575 69.3748 55.352Z" fill="#FFDD00"/>
<path d="M21.5827 40.0828H30.8327C31.7577 40.0828 32.3748 39.4657 32.3748 38.5407C32.3748 37.6157 31.7577 37 30.8327 37H21.5827C20.6577 37 20.0405 37.6172 20.0405 38.5422C20.0405 39.4672 20.6577 40.0828 21.5827 40.0828Z" fill="#FFDD00"/>
<path d="M41.6248 44.708H21.5827C20.6577 44.708 20.0405 45.3252 20.0405 46.2502C20.0405 47.1752 20.6577 47.7923 21.5827 47.7923H41.6248C42.5498 47.7923 43.167 47.1752 43.167 46.2502C43.167 45.3252 42.5498 44.708 41.6248 44.708Z" fill="#FFDD00"/>
<path d="M41.6248 52.417H21.5827C20.6577 52.417 20.0405 53.0341 20.0405 53.9591C20.0405 54.8841 20.6577 55.4998 21.5827 55.4998H41.6248C42.5498 55.4998 43.167 54.8827 43.167 53.9577C43.167 53.0327 42.5498 52.417 41.6248 52.417Z" fill="#FFDD00"/>
</svg>
