<svg width="20" height="20" viewBox="0 0 20 20" fill="none" xmlns="http://www.w3.org/2000/svg">
<g clip-path="url(#clip0_57_656)">
<path d="M10 20C15.5228 20 20 15.5228 20 10C20 4.47715 15.5228 0 10 0C4.47715 0 0 4.47715 0 10C0 15.5228 4.47715 20 10 20Z" fill="#4D76A1"/>
<path fill-rule="evenodd" clip-rule="evenodd" d="M9.62262 14.3863H10.4075C10.4075 14.3863 10.6446 14.3603 10.7656 14.2298C10.877 14.11 10.8735 13.885 10.8735 13.885C10.8735 13.885 10.8581 12.8319 11.3469 12.6768C11.8288 12.524 12.4475 13.6947 13.1033 14.1448C13.5992 14.4854 13.9761 14.4107 13.9761 14.4107L15.7296 14.3863C15.7296 14.3863 16.6469 14.3298 16.212 13.6086C16.1763 13.5496 15.9587 13.075 14.9082 12.0999C13.8087 11.0794 13.9559 11.2445 15.2804 9.47917C16.087 8.40409 16.4095 7.74774 16.3088 7.46663C16.2127 7.19888 15.6194 7.26965 15.6194 7.26965L13.645 7.28195C13.645 7.28195 13.4987 7.26198 13.3901 7.32687C13.2841 7.39051 13.2158 7.53882 13.2158 7.53882C13.2158 7.53882 12.9033 8.37076 12.4865 9.07827C11.6074 10.5712 11.2558 10.65 11.1122 10.5573C10.7779 10.3412 10.8613 9.68934 10.8613 9.22622C10.8613 7.77947 11.0808 7.17624 10.4341 7.02009C10.2194 6.96821 10.0615 6.93399 9.51263 6.92846C8.80815 6.92115 8.21187 6.9306 7.87425 7.09602C7.64964 7.20601 7.47637 7.45112 7.5819 7.4652C7.71239 7.48267 8.00794 7.54488 8.16463 7.75826C8.36696 8.03349 8.35983 8.65169 8.35983 8.65169C8.35983 8.65169 8.47605 10.3548 8.08834 10.5664C7.8222 10.7115 7.45712 10.4152 6.67332 9.0608C6.2717 8.36701 5.96848 7.60014 5.96848 7.60014C5.96848 7.60014 5.91001 7.45682 5.80573 7.38017C5.67916 7.2873 5.50233 7.25771 5.50233 7.25771L3.62615 7.27C3.62615 7.27 3.3445 7.27785 3.24111 7.40031C3.14913 7.50923 3.2338 7.73455 3.2338 7.73455C3.2338 7.73455 4.70266 11.171 6.36582 12.9028C7.89083 14.4906 9.62262 14.3863 9.62262 14.3863Z" fill="white"/>
</g>
<defs>
<clipPath id="clip0_57_656">
<rect width="20" height="20" fill="white"/>
</clipPath>
</defs>
</svg>
