<svg width="48" height="48" viewBox="0 0 48 48" fill="none" xmlns="http://www.w3.org/2000/svg">
<path d="M26.9696 18.696L27.6699 22.7779L24.0046 20.8507L20.3393 22.7779L21.0397 18.696L18.0742 15.8064L22.172 15.2102L24.0046 11.4974L25.8373 15.2102L29.935 15.8064L26.9696 18.696Z" fill="#F9A825"/>
<path d="M30.6429 37.2634H17.416C22.2525 34.8451 21.3002 29.556 21.3957 30.1522L21.6751 30.203C21.9898 30.306 22.3103 30.3902 22.6351 30.455C23.0797 30.5444 23.5304 30.6009 23.9834 30.624L24.0059 30.6283H24.0295H24.053L24.0722 30.625C24.5259 30.6019 24.9773 30.5458 25.4229 30.457C25.8277 30.3758 26.2261 30.2651 26.6147 30.1258C26.5912 30.4435 26.2288 35.0558 30.6429 37.2634Z" fill="#F9A825"/>
<path d="M31.6162 38.508V42.0254H16.4453V38.508C16.4453 38.3473 16.477 38.1883 16.5385 38.0398C16.5999 37.8914 16.6901 37.7566 16.8037 37.643C16.9173 37.5294 17.0522 37.4394 17.2006 37.3779C17.3491 37.3165 17.5082 37.2849 17.6688 37.285H30.3927C30.5533 37.2849 30.7124 37.3165 30.8609 37.3779C31.0093 37.4394 31.1442 37.5294 31.2578 37.643C31.3714 37.7566 31.4616 37.8914 31.523 38.0398C31.5845 38.1883 31.6162 38.3473 31.6162 38.508Z" fill="#FFC400"/>
<path d="M32.4756 24.7939C32.1932 24.793 31.9201 24.6926 31.7045 24.5103C31.4889 24.328 31.3444 24.0754 31.2966 23.7971C31.2488 23.5188 31.3007 23.2326 31.4431 22.9887C31.5855 22.7449 31.8093 22.5591 32.0752 22.464C37.8602 20.4173 38.944 18.1642 39.7596 15.432C39.9996 14.6213 40.0125 13.9834 39.7908 13.5883C39.6836 13.4027 39.5183 13.2574 39.3204 13.175L33.8253 13.1592C33.5071 13.1588 33.202 13.0319 32.9773 12.8065C32.7526 12.5812 32.6265 12.2758 32.627 11.9575C32.6274 11.6393 32.7543 11.3342 32.9797 11.1095C33.205 10.8848 33.5104 10.7588 33.8287 10.7592H33.832L39.509 10.7755C39.5896 10.7758 39.67 10.7842 39.749 10.8005C40.1815 10.9059 40.5889 11.0958 40.9476 11.3595C41.3063 11.6231 41.6092 11.9552 41.8389 12.3365C42.437 13.3368 42.5109 14.6102 42.0607 16.1208C41.5884 17.7048 40.9476 19.381 39.4687 20.9208C38.01 22.4429 35.9167 23.653 32.8749 24.7286C32.7464 24.7728 32.6114 24.7948 32.4756 24.7939Z" fill="#F9A825"/>
<path d="M15.5841 24.816C15.4483 24.8161 15.3136 24.793 15.1857 24.7478C12.1223 23.6688 10.0117 22.4563 8.54437 20.9314C7.05637 19.3872 6.41509 17.7048 5.94085 16.1165C5.48965 14.6059 5.56453 13.3325 6.16261 12.3322C6.39231 11.9508 6.69526 11.6188 7.05396 11.3552C7.41266 11.0915 7.82002 10.9015 8.25253 10.7962C8.3315 10.7798 8.4119 10.7715 8.49253 10.7712L14.2218 10.7549H14.2257C14.5439 10.7544 14.8493 10.8804 15.0747 11.1052C15.3 11.3299 15.4269 11.6349 15.4273 11.9532C15.4278 12.2715 15.3018 12.5769 15.077 12.8022C14.8523 13.0276 14.5473 13.1544 14.229 13.1549L8.68117 13.1707C8.48325 13.2531 8.31795 13.3983 8.21077 13.584C7.98901 13.979 8.00005 14.617 8.24197 15.4277C9.05797 18.1685 10.1495 20.4278 15.9839 22.4798C16.2513 22.5737 16.4769 22.7591 16.6207 23.0034C16.7645 23.2476 16.8172 23.5349 16.7695 23.8142C16.7217 24.0936 16.5767 24.347 16.36 24.5297C16.1433 24.7124 15.8689 24.8124 15.5855 24.8122L15.5841 24.816Z" fill="#F9A825"/>
<path d="M35.8841 8.34864C35.8716 7.55712 35.8582 6.76464 35.8582 5.97456H12.2014C12.2014 6.76512 12.1879 7.55856 12.1759 8.34864C12.1342 10.9886 12.1011 13.6253 12.5998 16.2269C12.8401 17.5031 13.1526 18.7646 13.5358 20.0054C14.0206 21.5597 14.635 23.0717 15.4188 24.4915C16.8209 27.0355 18.8921 29.2958 21.6756 30.2035L23.9839 30.624L24.0319 30.6269H24.0747L26.6187 30.1094C26.6187 30.1094 26.6187 30.1166 26.6187 30.1267C29.2836 29.1686 31.2785 26.9616 32.6398 24.4915C34.051 21.936 34.9131 19.0834 35.4603 16.2269C35.9585 13.6253 35.9254 10.9886 35.8841 8.34864ZM27.6689 22.7774L24.0036 20.8507L20.3383 22.7774L21.0387 18.6974L18.0732 15.8074L22.171 15.2122L24.0036 11.4989L25.8363 15.2122L29.934 15.8074L26.9686 18.696L27.6689 22.7774Z" fill="#FFC400"/>
</svg>
